<?xml version="1.0" encoding="UTF-8"?>
<svg viewBox="0 0 748.43835 822.01831" xmlns="http://www.w3.org/2000/svg" xmlns:xlink="http://www.w3.org/1999/xlink">
 <defs>
  <filter id="av">
   <feGaussianBlur stdDeviation="5.29878"/>
  </filter>
  <filter id="g">
   <feGaussianBlur stdDeviation="5.96504"/>
  </filter>
  <filter id="r">
   <feGaussianBlur stdDeviation="5.03881"/>
  </filter>
  <filter id="b">
   <feGaussianBlur stdDeviation="2.42247"/>
  </filter>
  <filter id="c">
   <feGaussianBlur stdDeviation="2.73455"/>
  </filter>
  <filter id="az">
   <feGaussianBlur stdDeviation="6.05465"/>
  </filter>
  <filter id="d">
   <feGaussianBlur stdDeviation="3.04518"/>
  </filter>
  <filter id="ay">
   <feGaussianBlur stdDeviation="12.21248"/>
  </filter>
  <filter id="s">
   <feGaussianBlur stdDeviation="6.06146"/>
  </filter>
  <filter id="ax">
   <feGaussianBlur stdDeviation="4.84314"/>
  </filter>
  <filter id="aw" x="-.12068" y="-.16669" width="1.2414" height="1.3334">
   <feGaussianBlur stdDeviation="27.52824"/>
  </filter>
  <filter id="au" x="-.05675" y="-.20579" width="1.1135" height="1.4116">
   <feGaussianBlur stdDeviation="7.49549"/>
  </filter>
  <filter id="f" x="-.05119" y="-.18295" width="1.1024" height="1.3659">
   <feGaussianBlur stdDeviation="4.84058"/>
  </filter>
  <linearGradient id="o">
   <stop stop-color="#c87137" offset="0"/>
   <stop stop-color="#c87137" stop-opacity="0" offset="1"/>
  </linearGradient>
  <linearGradient id="e">
   <stop stop-color="#fd5" offset="0"/>
   <stop stop-color="#fd5" stop-opacity="0" offset="1"/>
  </linearGradient>
  <linearGradient id="h">
   <stop stop-color="#a05a2c" offset="0"/>
   <stop stop-color="#fffa5f" stop-opacity=".76289" offset=".34821"/>
   <stop stop-color="#f5611f" stop-opacity=".75258" offset="1"/>
   <stop stop-color="#a05a2c" stop-opacity="0" offset="1"/>
  </linearGradient>
  <linearGradient id="j">
   <stop stop-color="#a05a2c" offset="0"/>
   <stop stop-color="#f5611f" stop-opacity=".75258" offset=".5"/>
   <stop stop-color="#e28100" stop-opacity=".82474" offset="1"/>
   <stop stop-color="#a05a2c" stop-opacity="0" offset="1"/>
  </linearGradient>
  <linearGradient id="l">
   <stop stop-color="#d45500" offset="0"/>
   <stop stop-color="#d45500" stop-opacity="0" offset="1"/>
  </linearGradient>
  <linearGradient id="a">
   <stop stop-color="#c87137" offset="0"/>
   <stop stop-color="#fae576" stop-opacity=".81443" offset=".5"/>
   <stop stop-color="#f2ab1a" stop-opacity=".60825" offset="1"/>
   <stop stop-color="#c87137" stop-opacity="0" offset="1"/>
  </linearGradient>
  <linearGradient id="n">
   <stop stop-color="#ffd42a" offset="0"/>
   <stop stop-color="#ffee7e" stop-opacity="0" offset="1"/>
  </linearGradient>
  <linearGradient id="ap" x1="273.7" x2="683.91" gradientUnits="userSpaceOnUse">
   <stop stop-color="#ff7f2a" offset="0"/>
   <stop stop-color="#ff7f2a" stop-opacity="0" offset="1"/>
  </linearGradient>
  <linearGradient id="ae" x1="692.52" x2="606.8" y1="458.46" y2="530.46" gradientUnits="userSpaceOnUse" xlink:href="#n"/>
  <linearGradient id="ad" x1="538.52" x2="742.8" y1="382.46" y2="630.46" gradientUnits="userSpaceOnUse" xlink:href="#n"/>
  <linearGradient id="m" x1="210.79" x2="464.44" y1="227.05" y2="124.36" gradientUnits="userSpaceOnUse" xlink:href="#a" spreadMethod="reflect"/>
  <linearGradient id="ac" x1="200" x2="378.12" y1="201.47" y2="199.88" gradientTransform="matrix(1 0 0 1.1087 -38 -115.98)" gradientUnits="userSpaceOnUse" xlink:href="#a" spreadMethod="reflect"/>
  <linearGradient id="ab" x1="204.81" x2="332.8" y1="-19.976" y2="65.19" gradientUnits="userSpaceOnUse" xlink:href="#a" spreadMethod="reflect"/>
  <linearGradient id="aa" x1="281.69" x2="-29.581" y1="241.31" y2="313.65" gradientTransform="matrix(.79875 -.60167 .60167 .79875 108.61 476.43)" gradientUnits="userSpaceOnUse" xlink:href="#a" spreadMethod="reflect"/>
  <linearGradient id="z" x1="281.69" x2="-29.581" y1="241.31" y2="313.65" gradientTransform="matrix(.79875 -.60167 .60167 .79875 258.14 540.52)" gradientUnits="userSpaceOnUse" xlink:href="#a" spreadMethod="reflect"/>
  <linearGradient id="y" x1="281.69" x2="-29.581" y1="241.31" y2="313.65" gradientTransform="matrix(.79875 -.60167 .60167 .79875 410.73 589.35)" gradientUnits="userSpaceOnUse" xlink:href="#a" spreadMethod="reflect"/>
  <linearGradient id="x" x1="152.08" x2="416.6" y1="409.7" y2="302.66" gradientUnits="userSpaceOnUse" xlink:href="#a" spreadMethod="reflect"/>
  <linearGradient id="k" x1="594.44" x2="664.52" y1="432.07" y2="534.27" gradientUnits="userSpaceOnUse" xlink:href="#l"/>
  <linearGradient id="w" x1="611.83" x2="681.91" y1="453.82" y2="556.01" gradientUnits="userSpaceOnUse" xlink:href="#l"/>
  <linearGradient id="v" x1="611.83" x2="681.91" y1="453.82" y2="556.01" gradientUnits="userSpaceOnUse" xlink:href="#a"/>
  <linearGradient id="u" x1="154.4" x2="312" y1="92.357" y2="109.96" gradientUnits="userSpaceOnUse" xlink:href="#j" spreadMethod="reflect"/>
  <linearGradient id="t" x1="157.52" x2="395.89" y1="81.153" y2="55.544" gradientUnits="userSpaceOnUse" xlink:href="#j" spreadMethod="repeat"/>
  <linearGradient id="i" x1="93.001" x2="290.51" gradientUnits="userSpaceOnUse" xlink:href="#h" spreadMethod="repeat"/>
  <linearGradient id="q" x1="161.75" x2="464.44" y1="237.43" y2="124.36" gradientTransform="matrix(.77285 -.63459 .63459 .77285 104.23 505.7)" gradientUnits="userSpaceOnUse" xlink:href="#a" spreadMethod="reflect"/>
  <linearGradient id="at" x1="161.75" x2="464.44" y1="237.43" y2="124.36" gradientTransform="matrix(.77285 -.63459 .63459 .77285 263.27 561.05)" gradientUnits="userSpaceOnUse" xlink:href="#a" spreadMethod="reflect"/>
  <linearGradient id="as" x1="139.29" x2="294.94" y1="240.47" y2="200.04" gradientTransform="matrix(.77285 -.63459 .63459 .77285 431.54 602.56)" gradientUnits="userSpaceOnUse" xlink:href="#a" spreadMethod="reflect"/>
  <linearGradient id="ar" x1="36.046" x2="290.51" y1="153.24" y2="109.96" gradientUnits="userSpaceOnUse" xlink:href="#h" spreadMethod="repeat"/>
  <linearGradient id="aq" x1="472.73" x2="686.16" gradientUnits="userSpaceOnUse" xlink:href="#e"/>
  <linearGradient id="ao" x1="480.8" x2="258.52" y1="295.74" y2="295.47" gradientTransform="matrix(.79875 -.60167 .60167 .79875 108.61 476.43)" gradientUnits="userSpaceOnUse" xlink:href="#a" spreadMethod="reflect"/>
  <linearGradient id="an" x1="594.06" x2="807.49" gradientUnits="userSpaceOnUse" xlink:href="#e"/>
  <linearGradient id="am" x1="672.34" x2="885.77" gradientUnits="userSpaceOnUse" xlink:href="#e"/>
  <linearGradient id="al" x1="149.85" x2="270.04" y1="147.31" y2="115.73" gradientUnits="userSpaceOnUse" xlink:href="#h" spreadMethod="repeat"/>
  <linearGradient id="ak" x1="139.29" x2="294.94" y1="240.47" y2="200.04" gradientTransform="matrix(.77285 -.63459 .63459 .77285 543.62 610.86)" gradientUnits="userSpaceOnUse" xlink:href="#a" spreadMethod="reflect"/>
  <linearGradient id="p" x1="171.07" x2="384.5" gradientUnits="userSpaceOnUse" xlink:href="#e"/>
  <linearGradient id="aj" x1="171.07" x2="236.93" y1="216.56" y2="195.82" gradientUnits="userSpaceOnUse" xlink:href="#e"/>
  <linearGradient id="ai" x1="257.39" x2="286.75" y1="-75.326" y2="26.444" gradientUnits="userSpaceOnUse" xlink:href="#a" spreadMethod="reflect"/>
  <linearGradient id="ah" x1="306.68" x2="511.81" y1="476.71" y2="393.68" gradientUnits="userSpaceOnUse" xlink:href="#e"/>
  <linearGradient id="ag" x1="300.72" x2="637.06" y1="541.45" y2="212.12" gradientUnits="userSpaceOnUse" xlink:href="#o"/>
  <linearGradient id="af" x1="105.17" x2="500.92" y1="317.9" y2="257.01" gradientUnits="userSpaceOnUse" xlink:href="#o"/>
 </defs>
 <g transform="translate(-80.359 74.874)">
  <path d="m96.457 59.055-1.9685 90.551v86.614l-1.9685 114.17 86.866 185.04 96.205 100.39 248.03 86.614s49.213 23.622 153.54 15.748l104.33-7.874s49.213-28.543 47.244-70.866-55.118-98.425-55.118-98.425l-90.551-139.76-51.276-108.27-134.05-116.14-121.76-70.866c-45.009-30.332-66.929-80.709-66.929-80.709s-31.496-123.52-84.646-120.08-127.95 133.86-127.95 133.86z" fill="url(#ad)" fill-rule="evenodd"/>
  <path d="m96.457 59.055-1.9685 90.551v86.614l-1.9685 114.17 84.866 185.04 98.205 100.39 248.03 86.614s53.563 46.584 153.54 15.748c95.451-29.439 104.33-7.874 104.33-7.874s49.213-28.543 47.244-70.866-55.118-98.425-55.118-98.425l-90.551-139.76-55.276-108.27-136.05-116.14-115.76-70.866c-45.009-30.332-66.929-80.709-66.929-80.709s-31.496-123.52-84.646-120.08-127.95 133.86-127.95 133.86z" fill="#fea" fill-rule="evenodd" opacity=".80556"/>
  <path d="m96.457 59.055-1.9685 90.551v86.614l-1.9685 114.17 58.146 155.69 124.92 129.75 248.03 86.614s52.16 35.322 153.54 9.469c100.53-25.634 97.834-26.005 97.834-26.005s40.46-10.412 53.741-46.456c-1.9685-42.323-55.118-98.425-55.118-98.425l-90.551-139.76-55.276-108.27-132.05-116.14-119.76-70.866c-49.902-35.225-66.929-80.709-66.929-80.709s-31.496-123.52-84.646-120.08-127.95 133.86-127.95 133.86z" fill="url(#ae)" fill-rule="evenodd" opacity=".74444"/>
  <path d="m94.488 370.08s-84.646-61.024 185.04-102.36 320.87-37.402 320.87-37.402 58.058-47.33 35.433 17.717c-15.748 45.276-62.992 74.803-62.992 74.803s-119.48 36.557-187.01 125.98c-72.835 96.457-117.09 179.7-117.09 179.7s-86.262-77.48-126.07-139.34c-14.15-65.663-48.176-119.1-48.176-119.1z" fill="url(#m)" fill-rule="evenodd" opacity=".73333"/>
  <path d="m449.17 690.08s19.684-70.494 75.894-155.75c61.994-65.846 92.179-61.979 92.179-61.979s29.436-9.7187 82.093-23.487c29.382 43.822 54.763 86.649 54.763 86.649s-49.376 12.326-89.085 57.51c-79.313 90.249-85.022 142.14-85.022 142.14s-58.135-16.001-76.381-21.779c-26.259-8.3151-54.442-23.302-54.442-23.302z" fill="url(#z)" fill-rule="evenodd" opacity=".73333"/>
  <path d="m576.79 734.79s38.542-54.175 94.752-139.43c43.684-35.329 68.897-45.759 86.46-54.95 29.382 43.822 33.926 44.241 33.926 44.241s-30.129 7.4561-41.469 44.989c-16.677 55.198-33.32 103.7-48.491 103.26-26.598-0.77269-125.18 1.891-125.18 1.891z" fill="url(#y)" fill-rule="evenodd" opacity=".73333"/>
  <path d="m80.359 333.77s45.695-28.444 154.94-60.55c89.135-15.294 195.38-38.494 195.38-38.494s129.13 8.4298 197.16-0.77198c-26.395 83.361-174.15 128.57-174.15 128.57s-34.051 32.024-73.61 80.119c-63.147 76.773-115.71 187.66-115.71 187.66s-123.75-135.35-131.28-162.39c-8.1432-29.225-52.718-134.14-52.718-134.14z" fill="url(#x)" fill-rule="evenodd" filter="url(#aw)" opacity=".63333"/>
  <path transform="matrix(1.2188 0 0 1.5414 -156.37 -222.59)" d="m474.01 576.67s5.4359-48.379 58.708-86.974 154.38-67.405 154.38-67.405" fill="none" filter="url(#av)" stroke="url(#k)" stroke-linecap="round" stroke-linejoin="round" stroke-width="9.1488"/>
  <path d="m273.7 633.62s39.52-84.227 95.73-169.49c61.994-65.846 142.53-118.44 142.53-118.44s43.855-14.296 113.3-40.272c29.382 43.822 58.654 120.22 58.654 120.22s-128.72 58.101-168.43 103.29c-79.313 90.249-74.341 165.03-74.341 165.03s-73.393-28.208-91.639-33.985c-26.259-8.3151-75.804-26.354-75.804-26.354z" fill="url(#ao)" fill-rule="evenodd" opacity=".73333" stroke="url(#ap)" stroke-width=".93683"/>
  <g fill="#fff" fill-rule="evenodd" opacity=".66111">
   <path transform="matrix(.58922 -.69548 .82459 .49991 225.06 597.25)" d="m106.52 154.76c5.2063-4.1389 8.3664 0.85244 9.1463 5.6483 3.0667 6.5423 54.622-82.075 58.358-75.901 4.6413-7.2636-45.324 78.51-45.057 70.439 0.35846-6.7446 3.3954-17.012 9.6904-19.366 2.6071-0.30954 10.14 5.0584 3.8488 4.8615-3.7849-6.4103-11.664-12.996-18.838-7.4876-5.2014 1.3797-15.65 8.2194-17.984 0.6848 1.7156-6.9225 13.521-7.7293 11.96-15.987-4.0117-4.0753-3.0755-8.2088 2.9066-6.5459 7.4575-0.68094 15.411 4.4084 16.11 12.222 2.7114 7.5615 4.5681 15.455 8.1347 22.691 4.1582-6.2735-0.38012-13.827 1.1491-20.52 4.3039 1.5032 10.595 6.8003 16.728 4.9338 4.3933-3.6209 14.296-5.3012 15.591 1.5205-8.0808 1.3856-10.178-9.7625-15.759-13.652-3.6592-5.8161-8.6093-11.042-12.782-16.447-1.4424-9.57 11.899-5.9796 12.683 1.2592 4.7006 7.2615 103.6 41.348 108.72 48.32 0.00804-5.9229-101.99-37.688-99.089-43.543 7.8051 3.478 16.886 8.4652 18.153 17.82 1.5213 6.4577 1.8163 13.359 5.0939 19.277 0.13987-6.7024 80.487-8.8657 89.873-10.473 5.9222-4.7403 23.033 1.0608 23.481 8.3968 2.8679-3.8876-99.475-20.593-101.7-25.323 2.3024-6.8909 17.467-7.78 19.74-11.837-9.8093-1.311-19.779 0.16007-29.565-1.4267-3.8958-7.3521 3.6509-15.338-0.07808-22.975 2.4226-8.962 8.2551 1.0201 10.171 4.8404 3.8485 8.2181 12.194 10.048 20.258 10.534 7.6945 1.4274 15.967 50.718 23.038 54.022 6.3034 0.76814 10.81-42.971 15.858-39.104 4.6434 2.785 9.3302 7.1039 14.899 7.171-3.9592-4.2174-11.437-7.0074-16.69-10.739-8.3557-5.0332-16.625-10.304-24.036-16.678 3.146-6.4704 12.665-4.9556 18.23-7.7169 8.5849 0.68661 15.571 6.3843 23.324 9.5495 5.4421 2.5046 14.394 8.63 17.148 9.7729-6.0739-7.4321-10.896-15.806-14.981-24.469-2.6802-6.9927 11.322-9.0341 11.269-9.9959-6.9982 0.2228-15.476-1.3805-20.72-5.9624-3.3737-4.8618-9.6779-3.1925-9.8986 2.7594-4.0422 5.884-16.43 2.7374-15.466 12.805-0.27952 2.9362 2.0808 70.628 1.2021 70.31 1.159-9.6909 0.20706-79.372-0.43218-89.169-7.3276 1.9294-13.916 6.7684-20.552 9.7964-5.3984 6.0898-4.7522 14.729-6.1198 22.24-4.0672 0.93893-2.93-9.1781-4.6386-12.561-1.8055-7.1419-4.6259-14.582-2.4318-21.985-0.25495-7.5847-8.3347-2.3731-7.7297 2.8719-0.53097 5.4806-5.5307 9.9187-9.9996 4.7637-5.9832-1.8562-9.8638 7.0553-15.348 1.1462-3.7058-2.9075-15.798-8.2695-11.616 1.0716 3.3771 7.4552 7.2532 14.682 9.9102 22.454 3.2857 6.15-4.3105 6.4652-6.7186 2.0473-6.2997-3.9681-4.9815-29.761-11.811-32.306-8.1401 1.8352-11.869 8.5125-19.138 12.671-6.003 5.7041-5.845 33.059-12.338 38.211-3.5196 3.4839-10.941-72.326-9.5093-77.253 1.3015-8.6645-63.538 38.79-63.75 29.951-5.7722-6.1367 60.871 20.648 56.833 23.474-7.4226-1.3658-50.308-4.362-11.392 12.08 2.1592 8.0246-79.024 41.849-77.307 49.92-1.1269 9.0571 78.539-9.122 79.051-0.22774 1.3314 2.8668-7.2143 8.5605-3.3921 7.8304 0.57871-0.60538 1.1004-1.2637 1.575-1.9531" filter="url(#b)" opacity=".99444"/>
   <path transform="matrix(.82418 -.2425 .22465 .66225 379.85 387.39)" d="m106.52 154.76c5.2063-4.1389 8.3664 0.85244 9.1463 5.6483 3.0667 6.5423 54.622-82.075 58.358-75.901 4.6413-7.2636-45.324 78.51-45.057 70.439 0.35846-6.7446 3.3954-17.012 9.6904-19.366 2.6071-0.30954 10.14 5.0584 3.8488 4.8615-3.7849-6.4103-11.664-12.996-18.838-7.4876-5.2014 1.3797-15.65 8.2194-17.984 0.6848 1.7156-6.9225 13.521-7.7293 11.96-15.987-4.0117-4.0753-3.0755-8.2088 2.9066-6.5459 7.4575-0.68094 15.411 4.4084 16.11 12.222 2.7114 7.5615 4.5681 15.455 8.1347 22.691 4.1582-6.2735-0.38012-13.827 1.1491-20.52 4.3039 1.5032 10.595 6.8003 16.728 4.9338 4.3933-3.6209 14.296-5.3012 15.591 1.5205-8.0808 1.3856-10.178-9.7625-15.759-13.652-3.6592-5.8161-8.6093-11.042-12.782-16.447-1.4424-9.57 11.899-5.9796 12.683 1.2592 4.7006 7.2615 103.6 41.348 108.72 48.32 0.00804-5.9229-101.99-37.688-99.089-43.543 7.8051 3.478 16.886 8.4652 18.153 17.82 1.5213 6.4577 1.8163 13.359 5.0939 19.277 0.13987-6.7024 80.487-8.8657 89.873-10.473 5.9222-4.7403 23.033 1.0608 23.481 8.3968 2.8679-3.8876-99.475-20.593-101.7-25.323 2.3024-6.8909 17.467-7.78 19.74-11.837-9.8093-1.311-19.779 0.16007-29.565-1.4267-3.8958-7.3521 3.6509-15.338-0.07808-22.975 2.4226-8.962 8.2551 1.0201 10.171 4.8404 3.8485 8.2181 12.194 10.048 20.258 10.534 7.6945 1.4274 15.967 50.718 23.038 54.022 6.3034 0.76814 10.81-42.971 15.858-39.104 4.6434 2.785 9.3302 7.1039 14.899 7.171-3.9592-4.2174-11.437-7.0074-16.69-10.739-8.3557-5.0332-16.625-10.304-24.036-16.678 3.146-6.4704 12.665-4.9556 18.23-7.7169 8.5849 0.68661 15.571 6.3843 23.324 9.5495 5.4421 2.5046 14.394 8.63 17.148 9.7729-6.0739-7.4321-10.896-15.806-14.981-24.469-2.6802-6.9927 11.322-9.0341 11.269-9.9959-6.9982 0.2228-15.476-1.3805-20.72-5.9624-3.3737-4.8618-9.6779-3.1925-9.8986 2.7594-4.0422 5.884-16.43 2.7374-15.466 12.805-0.27952 2.9362 2.0808 70.628 1.2021 70.31 1.159-9.6909 0.20706-79.372-0.43218-89.169-7.3276 1.9294-13.916 6.7684-20.552 9.7964-5.3984 6.0898-4.7522 14.729-6.1198 22.24-4.0672 0.93893-2.93-9.1781-4.6386-12.561-1.8055-7.1419-4.6259-14.582-2.4318-21.985-0.25495-7.5847-8.3347-2.3731-7.7297 2.8719-0.53097 5.4806-5.5307 9.9187-9.9996 4.7637-5.9832-1.8562-9.8638 7.0553-15.348 1.1462-3.7058-2.9075-15.798-8.2695-11.616 1.0716 3.3771 7.4552 7.2532 14.682 9.9102 22.454 3.2857 6.15-4.3105 6.4652-6.7186 2.0473-6.2997-3.9681-4.9815-29.761-11.811-32.306-8.1401 1.8352-11.869 8.5125-19.138 12.671-6.003 5.7041-5.845 33.059-12.338 38.211-3.5196 3.4839-10.941-72.326-9.5093-77.253 1.3015-8.6645-63.538 38.79-63.75 29.951-5.7722-6.1367 60.871 20.648 56.833 23.474-7.4226-1.3658-50.308-4.362-11.392 12.08 2.1592 8.0246-79.024 41.849-77.307 49.92-1.1269 9.0571 78.539-9.122 79.051-0.22774 1.3314 2.8668-7.2143 8.5605-3.3921 7.8304 0.57871-0.60538 1.1004-1.2637 1.575-1.9531" filter="url(#b)" opacity=".99444"/>
  </g>
  <path transform="matrix(1.0079 -.1715 .15873 1.089 -101.39 85.509)" d="m465.18 614.25s59.725-91.743 113-130.34 142.54-33.33 142.54-33.33" fill="none" filter="url(#g)" stroke="#bf2b00" stroke-linecap="round" stroke-linejoin="round" stroke-width="6.4746"/>
  <path transform="matrix(1.0079 -.1715 .15873 1.089 -17.891 168.13)" d="m491.41 598.41s5.4359-48.379 58.708-86.974 148.81-62.891 148.81-62.891" fill="none" filter="url(#g)" stroke="url(#w)" stroke-linecap="round" stroke-linejoin="round" stroke-width="9.1488"/>
  <path transform="matrix(.89763 -.41593 .48255 .66699 -107.66 528.82)" d="m491.41 598.41s5.4359-48.379 58.708-86.974 154.38-67.405 154.38-67.405" fill="none" filter="url(#g)" stroke="url(#v)" stroke-linecap="round" stroke-linejoin="round" stroke-width="9.1488"/>
  <path transform="matrix(.96785 .2893 -.59955 .94936 -14.319 -460.87)" d="m474.01 576.67s5.4359-48.379 58.708-86.974 141.17-65.793 141.17-65.793" fill="none" filter="url(#au)" stroke="url(#k)" stroke-linecap="round" stroke-linejoin="round" stroke-width="9.1488"/>
  <path transform="matrix(.95507 .36491 -.41714 1.0184 -175.71 -645.05)" d="m520.66 528.82s17.902-31.291 78.724-58.909c69.921-31.75 116.62-19.137 116.62-19.137" fill="none" filter="url(#g)" stroke="#bf2b00" stroke-linecap="round" stroke-linejoin="round" stroke-width="6.4746"/>
  <path transform="matrix(.70058 -.24759 .42552 .68016 37.472 80.047)" d="m106.52 154.76c5.2063-4.1389 8.3664 0.85244 9.1463 5.6483 3.0667 6.5423 54.622-82.075 58.358-75.901 4.6413-7.2636-45.324 78.51-45.057 70.439 0.35846-6.7446 3.3954-17.012 9.6904-19.366 2.6071-0.30954 10.14 5.0584 3.8488 4.8615-3.7849-6.4103-11.664-12.996-18.838-7.4876-5.2014 1.3797-15.65 8.2194-17.984 0.6848 1.7156-6.9225 13.521-7.7293 11.96-15.987-4.0117-4.0753-3.0755-8.2088 2.9066-6.5459 7.4575-0.68094 15.411 4.4084 16.11 12.222 2.7114 7.5615 4.5681 15.455 8.1347 22.691 4.1582-6.2735-0.38012-13.827 1.1491-20.52 4.3039 1.5032 10.595 6.8003 16.728 4.9338 4.3933-3.6209 14.296-5.3012 15.591 1.5205-8.0808 1.3856-10.178-9.7625-15.759-13.652-3.6592-5.8161-8.6093-11.042-12.782-16.447-1.4424-9.57 11.899-5.9796 12.683 1.2592 4.7006 7.2615 103.6 41.348 108.72 48.32 0.00804-5.9229-101.99-37.688-99.089-43.543 7.8051 3.478 16.886 8.4652 18.153 17.82 1.5213 6.4577 1.8163 13.359 5.0939 19.277 0.13987-6.7024 80.487-8.8657 89.873-10.473 5.9222-4.7403 23.033 1.0608 23.481 8.3968 2.8679-3.8876-99.475-20.593-101.7-25.323 2.3024-6.8909 17.467-7.78 19.74-11.837-9.8093-1.311-19.779 0.16007-29.565-1.4267-3.8958-7.3521 3.6509-15.338-0.07808-22.975 2.4226-8.962 8.2551 1.0201 10.171 4.8404 3.8485 8.2181 12.194 10.048 20.258 10.534 7.6945 1.4274 15.967 50.718 23.038 54.022 6.3034 0.76814 10.81-42.971 15.858-39.104 4.6434 2.785 9.3302 7.1039 14.899 7.171-3.9592-4.2174-11.437-7.0074-16.69-10.739-8.3557-5.0332-16.625-10.304-24.036-16.678 3.146-6.4704 12.665-4.9556 18.23-7.7169 8.5849 0.68661 15.571 6.3843 23.324 9.5495 5.4421 2.5046 14.394 8.63 17.148 9.7729-6.0739-7.4321-10.896-15.806-14.981-24.469-2.6802-6.9927 11.322-9.0341 11.269-9.9959-6.9982 0.2228-15.476-1.3805-20.72-5.9624-3.3737-4.8618-9.6779-3.1925-9.8986 2.7594-4.0422 5.884-16.43 2.7374-15.466 12.805-0.27952 2.9362 2.0808 70.628 1.2021 70.31 1.159-9.6909 0.20706-79.372-0.43218-89.169-7.3276 1.9294-13.916 6.7684-20.552 9.7964-5.3984 6.0898-4.7522 14.729-6.1198 22.24-4.0672 0.93893-2.93-9.1781-4.6386-12.561-1.8055-7.1419-4.6259-14.582-2.4318-21.985-0.25495-7.5847-8.3347-2.3731-7.7297 2.8719-0.53097 5.4806-5.5307 9.9187-9.9996 4.7637-5.9832-1.8562-9.8638 7.0553-15.348 1.1462-3.7058-2.9075-15.798-8.2695-11.616 1.0716 3.3771 7.4552 7.2532 14.682 9.9102 22.454 3.2857 6.15-4.3105 6.4652-6.7186 2.0473-6.2997-3.9681-4.9815-29.761-11.811-32.306-8.1401 1.8352-11.869 8.5125-19.138 12.671-6.003 5.7041-5.845 33.059-12.338 38.211-3.5196 3.4839-10.941-72.326-9.5093-77.253 1.3015-8.6645-63.538 38.79-63.75 29.951-5.7722-6.1367 60.871 20.648 56.833 23.474-7.4226-1.3658-50.308-4.362-11.392 12.08 2.1592 8.0246-79.024 41.849-77.307 49.92-1.1269 9.0571 78.539-9.122 79.051-0.22774 1.3314 2.8668-7.2143 8.5605-3.3921 7.8304 0.57871-0.60538 1.1004-1.2637 1.575-1.9531" fill="#fff" fill-rule="evenodd" filter="url(#b)" opacity=".99444"/>
  <path transform="matrix(.7524 .65871 -.65871 .7524 193.91 -284.42)" d="m166.6 333.56s0.63831-23.731 51.027-89.181c37.573-48.805 84.264-73.313 84.264-73.313s-2.6505 17.279-5.1569 0.56407c-18.162 2.854-12.372-10.29-14.801-0.91138-15.443 59.625-90.425 74.281-115.33 162.84z" fill="url(#p)" fill-rule="evenodd" filter="url(#d)" opacity=".83333" stroke="#ffe680" stroke-width="7.0228"/>
  <path transform="matrix(.34458 .93876 -.93876 .34458 358.45 -296.31)" d="m185.47 271.86s-13.371-2.6616 18.738-47.144c36.049-49.941 97.682-53.648 97.682-53.648s-112.43 63.283-75.602 19.732c-74.725 20.416 41.608-36.707 17.393-17.68-48.431 38.053-33.303 10.179-58.211 98.739z" fill="url(#aj)" fill-rule="evenodd" filter="url(#d)" opacity=".83333" stroke="#ffd42a" stroke-width="7.0228"/>
  <path d="m161.41-35.475s53.033 15.929 99.228 21.648c34.065 13.938 23.43 26.692 23.43 26.692s7.4664 0.88126 25.323 34.387c-53.964-2.5667-32.892-19.012-100.67-8.993-80.899 11.959-64.2 0.63863-111.25 38 4.0012-37.446 4.4238-28.245 19.516-52.744 19.867-32.249 44.42-58.99 44.42-58.99z" fill="url(#ab)" fill-rule="evenodd" opacity=".73333"/>
  <path transform="matrix(1.2749 0 0 1.2227 -25.569 5.9522)" d="m96.441 148.58 7.8276-3.0441c2.3361-0.90848 10.408 31.87 13.21 30.781 2.578-1.0026-0.13079-35.867 2.4472-36.869l15.654-6.0877s-11.651-8.6974-14.13-10.659c-2.2919-1.8139-18.484 7.6835-20.695 5.8001-2.427-2.0678 9.1559-15.512 7.3063-17.364-3.2615-3.2673-5.2355-5.9572-4.5464-7.2124 0.5895-1.074 13.509 2.0731 16.845 3.344 3.2733 1.247 13.231 32.386 16.052 33.46 3.3398 1.2723-0.54443-27.553 2.2126-26.503 3.464 1.3196 19.559 33.991 22.202 34.998 3.7678 1.4354-6.3104-28.944-3.9368-28.04l9.132 3.4789s-2.7424-2.523-6.4532-6.1399c-1.9215-1.8729-4.1026-4.039-6.297-6.3001-2.0813-2.1444-4.1745-4.3743-6.0697-6.5202-2.237-2.5329-4.1979-4.949-5.5374-6.9699-2.5773-3.8883-2.8539-6.3136 1.6312-5.2936 1.8726 0.4259 19.95 26.821 23.662 28.593 2.2534 1.0754-10.496-22.944-7.4592-21.287l15.945 8.6974c2.9158 1.5904 4.7962 26.867 7.2032 28.18 3.0234 1.6491 6.4334-20.742 8.7408-19.483l7.9733 4.3491c7.9734 4.3491-1.3895-6.9067-3.2658-9.4736-1.7296-2.3662 25.767-7.939 24.243-10.42-1.6728-2.7233-32.328-2.3518-33.306-4.8399-1.3684-3.4807-1.8281-6.5399-0.73841-8.6418 1.0405-2.007-1.8878-19.285 2.5355-19.08 2.344 0.10848 10.623 16.737 14.156 17.667l16.525 4.3486c3.1333 0.82456-2.5857 31.526-0.19444 32.155 3.4094 0.8972 14.572-28.372 16.719-27.807l8.2632 2.1745s27.916 18.44 31.348 15.32c1.826-1.66-21.466-24.304-19.39-26.192l5.9796-5.436c3.4323-3.1202 28.274 15.32 28.274 15.32s-19.364-23.035-15.771-25.83l6.523-5.0735c3.5928-2.7944-17.268 0.52835-17.268 0.52835s20.181-5.6771 14.303-5.7996l-9.4875-0.19766c-2.9462-0.06138-2.2901-7.8153-5.6439-7.8852-3.0448-0.06343-10.07 7.5578-13.332 7.4898l-9.4875-0.19766c-3.1548-0.06572 2.1234-8.5882-1.0314-8.6539-3.203-0.06673-14.838 8.3233-17.944 8.2586l-18.977-0.39535c3.3075-20.677 0.70931-22.572-9.4891-0.19769-5.8779-0.12246-12.995 0.54618-18.458 1.705-2.6017 0.55188-11.028-8.0272-14.35-7.3226-2.8243 0.5991-0.46711 10.466-3.5879 11.128l-8.9686 1.9024c-3.0181 0.6402-1.4236 18.193-4.3563 18.815-3.1211 0.66205-10.758-15.609-13.582-15.01l-8.9696 1.9026c-5.4627 1.1588-1.2818 25.734-1.2818 25.734s-11.009-22.682-14.849-18.587c-1.6929 1.805-3.4866 4.1823-5.1411 7.2857-1.2396 2.3252-3.3169 16.143-3.8232 19.378-0.42533 2.7173 3.4334 29.324 3.9194 32.421 0.44143 2.813-2.8683 16.148-3.0144 9.5996" fill="url(#u)" fill-rule="evenodd" filter="url(#r)"/>
  <path d="m99.406 84.157s-27.874-10.135 78.32-37.053c93.135 3 139.11 12.369 139.11 12.369 14.432 24.11 43.959 56.898 70.248 73.739-53.964-2.8456-86.314-10.749-144.68 5.4007-113.65 31.448-146.17 88.19-146.17 88.19s-1.2469-54.103-2.3158-75.288c-1.7124-33.937 5.4848-67.357 5.4848-67.357z" fill="url(#ac)" fill-rule="evenodd" opacity=".73333"/>
  <path transform="matrix(.70058 -.24759 .42552 .68016 51.17 201.38)" d="m106.52 154.76c5.2063-4.1389 8.3664 0.85244 9.1463 5.6483 3.0667 6.5423 54.622-82.075 58.358-75.901 4.6413-7.2636-45.324 78.51-45.057 70.439 0.35846-6.7446 3.3954-17.012 9.6904-19.366 2.6071-0.30954 10.14 5.0584 3.8488 4.8615-3.7849-6.4103-11.664-12.996-18.838-7.4876-5.2014 1.3797-15.65 8.2194-17.984 0.6848 1.7156-6.9225 13.521-7.7293 11.96-15.987-4.0117-4.0753-3.0755-8.2088 2.9066-6.5459 7.4575-0.68094 15.411 4.4084 16.11 12.222 2.7114 7.5615 4.5681 15.455 8.1347 22.691 4.1582-6.2735-0.38012-13.827 1.1491-20.52 4.3039 1.5032 10.595 6.8003 16.728 4.9338 4.3933-3.6209 14.296-5.3012 15.591 1.5205-8.0808 1.3856-10.178-9.7625-15.759-13.652-3.6592-5.8161-8.6093-11.042-12.782-16.447-1.4424-9.57 11.899-5.9796 12.683 1.2592 4.7006 7.2615 103.6 41.348 108.72 48.32 0.00804-5.9229-101.99-37.688-99.089-43.543 7.8051 3.478 16.886 8.4652 18.153 17.82 1.5213 6.4577 1.8163 13.359 5.0939 19.277 0.13987-6.7024 80.487-8.8657 89.873-10.473 5.9222-4.7403 23.033 1.0608 23.481 8.3968 2.8679-3.8876-99.475-20.593-101.7-25.323 2.3024-6.8909 17.467-7.78 19.74-11.837-9.8093-1.311-19.779 0.16007-29.565-1.4267-3.8958-7.3521 3.6509-15.338-0.07808-22.975 2.4226-8.962 8.2551 1.0201 10.171 4.8404 3.8485 8.2181 12.194 10.048 20.258 10.534 7.6945 1.4274 15.967 50.718 23.038 54.022 6.3034 0.76814 10.81-42.971 15.858-39.104 4.6434 2.785 9.3302 7.1039 14.899 7.171-3.9592-4.2174-11.437-7.0074-16.69-10.739-8.3557-5.0332-16.625-10.304-24.036-16.678 3.146-6.4704 12.665-4.9556 18.23-7.7169 8.5849 0.68661 15.571 6.3843 23.324 9.5495 5.4421 2.5046 14.394 8.63 17.148 9.7729-6.0739-7.4321-10.896-15.806-14.981-24.469-2.6802-6.9927 11.322-9.0341 11.269-9.9959-6.9982 0.2228-15.476-1.3805-20.72-5.9624-3.3737-4.8618-9.6779-3.1925-9.8986 2.7594-4.0422 5.884-16.43 2.7374-15.466 12.805-0.27952 2.9362 2.0808 70.628 1.2021 70.31 1.159-9.6909 0.20706-79.372-0.43218-89.169-7.3276 1.9294-13.916 6.7684-20.552 9.7964-5.3984 6.0898-4.7522 14.729-6.1198 22.24-4.0672 0.93893-2.93-9.1781-4.6386-12.561-1.8055-7.1419-4.6259-14.582-2.4318-21.985-0.25495-7.5847-8.3347-2.3731-7.7297 2.8719-0.53097 5.4806-5.5307 9.9187-9.9996 4.7637-5.9832-1.8562-9.8638 7.0553-15.348 1.1462-3.7058-2.9075-15.798-8.2695-11.616 1.0716 3.3771 7.4552 7.2532 14.682 9.9102 22.454 3.2857 6.15-4.3105 6.4652-6.7186 2.0473-6.2997-3.9681-4.9815-29.761-11.811-32.306-8.1401 1.8352-11.869 8.5125-19.138 12.671-6.003 5.7041-5.845 33.059-12.338 38.211-3.5196 3.4839-10.941-72.326-9.5093-77.253 1.3015-8.6645-63.538 38.79-63.75 29.951-5.7722-6.1367 60.871 20.648 56.833 23.474-7.4226-1.3658-50.308-4.362-11.392 12.08 2.1592 8.0246-79.024 41.849-77.307 49.92-1.1269 9.0571 78.539-9.122 79.051-0.22774 1.3314 2.8668-7.2143 8.5605-3.3921 7.8304 0.57871-0.60538 1.1004-1.2637 1.575-1.9531" fill="#fff" fill-rule="evenodd" filter="url(#b)" opacity=".99444"/>
  <path transform="matrix(.70486 .16262 -.082221 .55191 245.44 117.41)" d="m106.52 154.76c5.2063-4.1389 8.3664 0.85244 9.1463 5.6483 3.0667 6.5423 54.622-82.075 58.358-75.901 4.6413-7.2636-45.324 78.51-45.057 70.439 0.35846-6.7446 3.3954-17.012 9.6904-19.366 2.6071-0.30954 10.14 5.0584 3.8488 4.8615-3.7849-6.4103-11.664-12.996-18.838-7.4876-5.2014 1.3797-15.65 8.2194-17.984 0.6848 1.7156-6.9225 13.521-7.7293 11.96-15.987-4.0117-4.0753-3.0755-8.2088 2.9066-6.5459 7.4575-0.68094 15.411 4.4084 16.11 12.222 2.7114 7.5615 4.5681 15.455 8.1347 22.691 4.1582-6.2735-0.38012-13.827 1.1491-20.52 4.3039 1.5032 10.595 6.8003 16.728 4.9338 4.3933-3.6209 14.296-5.3012 15.591 1.5205-8.0808 1.3856-10.178-9.7625-15.759-13.652-3.6592-5.8161-8.6093-11.042-12.782-16.447-1.4424-9.57 11.899-5.9796 12.683 1.2592 4.7006 7.2615 103.6 41.348 108.72 48.32 0.00804-5.9229-101.99-37.688-99.089-43.543 7.8051 3.478 16.886 8.4652 18.153 17.82 1.5213 6.4577 1.8163 13.359 5.0939 19.277 0.13987-6.7024 80.487-8.8657 89.873-10.473 5.9222-4.7403 23.033 1.0608 23.481 8.3968 2.8679-3.8876-99.475-20.593-101.7-25.323 2.3024-6.8909 17.467-7.78 19.74-11.837-9.8093-1.311-19.779 0.16007-29.565-1.4267-3.8958-7.3521 3.6509-15.338-0.07808-22.975 2.4226-8.962 8.2551 1.0201 10.171 4.8404 3.8485 8.2181 12.194 10.048 20.258 10.534 7.6945 1.4274 15.967 50.718 23.038 54.022 6.3034 0.76814 10.81-42.971 15.858-39.104 4.6434 2.785 9.3302 7.1039 14.899 7.171-3.9592-4.2174-11.437-7.0074-16.69-10.739-8.3557-5.0332-16.625-10.304-24.036-16.678 3.146-6.4704 12.665-4.9556 18.23-7.7169 8.5849 0.68661 15.571 6.3843 23.324 9.5495 5.4421 2.5046 14.394 8.63 17.148 9.7729-6.0739-7.4321-10.896-15.806-14.981-24.469-2.6802-6.9927 11.322-9.0341 11.269-9.9959-6.9982 0.2228-15.476-1.3805-20.72-5.9624-3.3737-4.8618-9.6779-3.1925-9.8986 2.7594-4.0422 5.884-16.43 2.7374-15.466 12.805-0.27952 2.9362 2.0808 70.628 1.2021 70.31 1.159-9.6909 0.20706-79.372-0.43218-89.169-7.3276 1.9294-13.916 6.7684-20.552 9.7964-5.3984 6.0898-4.7522 14.729-6.1198 22.24-4.0672 0.93893-2.93-9.1781-4.6386-12.561-1.8055-7.1419-4.6259-14.582-2.4318-21.985-0.25495-7.5847-8.3347-2.3731-7.7297 2.8719-0.53097 5.4806-5.5307 9.9187-9.9996 4.7637-5.9832-1.8562-9.8638 7.0553-15.348 1.1462-3.7058-2.9075-15.798-8.2695-11.616 1.0716 3.3771 7.4552 7.2532 14.682 9.9102 22.454 3.2857 6.15-4.3105 6.4652-6.7186 2.0473-6.2997-3.9681-4.9815-29.761-11.811-32.306-8.1401 1.8352-11.869 8.5125-19.138 12.671-6.003 5.7041-5.845 33.059-12.338 38.211-3.5196 3.4839-10.941-72.326-9.5093-77.253 1.3015-8.6645-63.538 38.79-63.75 29.951-5.7722-6.1367 60.871 20.648 56.833 23.474-7.4226-1.3658-50.308-4.362-11.392 12.08 2.1592 8.0246-79.024 41.849-77.307 49.92-1.1269 9.0571 78.539-9.122 79.051-0.22774 1.3314 2.8668-7.2143 8.5605-3.3921 7.8304 0.57871-0.60538 1.1004-1.2637 1.575-1.9531" fill="#fff" fill-rule="evenodd" filter="url(#b)" opacity=".99444"/>
  <path transform="matrix(1.8199 0 0 1.2227 -64.508 95.971)" d="m96.441 148.58 7.8276-3.0441c2.3361-0.90848 10.408 31.87 13.21 30.781 2.578-1.0026-0.13079-35.867 2.4472-36.869 2.8018-1.0896 10.331-2.1358 12.667-3.0442 4.5999-1.7888-8.6637-11.741-11.143-13.703-2.2919-1.8139-23.857 10.885-26.067 9.0011-2.427-2.0678 14.528-18.713 12.679-20.566-3.2615-3.2673-5.2355-5.9572-4.5464-7.2124 0.5895-1.074 3.1282-1.0977 8.4776 0.46562 2.2639 0.66162 5.0312 1.6075 8.3672 2.8784 3.2733 1.247 13.231 32.386 16.052 33.46 3.3398 1.2723-0.54443-27.553 2.2126-26.503 3.464 1.3196 19.559 33.991 22.202 34.998 3.7678 1.4354-6.3104-28.944-3.9368-28.04l9.132 3.4789s-10.556-10.179-12.75-12.44c-2.0813-2.1444-4.1745-4.3743-6.0697-6.5202-2.237-2.5329-4.1979-4.949-5.5374-6.9699-2.5773-3.8883-2.8539-6.3136 1.6312-5.2936 1.8726 0.4259 19.95 26.821 23.662 28.593 2.2534 1.0754-10.496-22.944-7.4592-21.287l7.9721 4.3484 7.9731 4.349c2.9158 1.5904 4.7962 26.867 7.2032 28.18 3.0234 1.6491 6.4334-20.742 8.7408-19.483l7.9733 4.3491 7.9734 4.3491s-9.3628-11.256-11.239-13.823c-1.7296-2.3662 25.767-7.939 24.243-10.42-1.6728-2.7233-32.328-2.3518-33.306-4.8399-1.3684-3.4807-1.8281-6.5399-0.73841-8.6418 1.0405-2.007-1.8878-19.285 2.5355-19.08 2.344 0.10848 10.623 16.737 14.156 17.667l8.2629 2.1745 8.2617 2.1741c3.1333 0.82456-2.5857 31.526-0.19444 32.155 3.4094 0.8972 14.572-28.372 16.719-27.807l8.2632 2.1745s27.916 18.44 31.348 15.32c1.826-1.66-21.466-24.304-19.39-26.192l5.9796-5.436c3.4323-3.1202 28.274 15.32 28.274 15.32s-19.364-23.035-15.771-25.83l6.523-5.0735c3.5928-2.7944 6.5231 12.532 6.5231 12.532s-3.6104-17.681-9.4881-17.804l-9.4875-0.19766c-2.9462-0.06138-2.2901-7.8153-5.6439-7.8852-3.0448-0.06343-10.07 7.5578-13.332 7.4898-3.1059-0.06471-2.5211-1.7315-5.7239-1.7982-3.1548-0.06572-1.6401-6.9877-4.7949-7.0534-3.203-0.06673-13.225 1.9212-16.331 1.8564-3.2619-0.06796-17.643 6.0682-20.59 6.0068 3.3075-20.677-2.5166-27.374-12.715-4.9993-5.8779-0.12246-11.382-0.25409-16.845 0.90472-2.6017 0.55188-9.4154-2.4253-12.737-1.7207-2.8243 0.5991-0.46711 10.466-3.5879 11.128l-8.9686 1.9024c-3.0181 0.6402-1.4236 18.193-4.3563 18.815-3.1211 0.66205-10.758-15.609-13.582-15.01l-8.9696 1.9026c-5.4627 1.1588-1.2818 25.734-1.2818 25.734s-11.009-22.682-14.849-18.587c-1.6929 1.805-3.4866 4.1823-5.1411 7.2857-1.2396 2.3252-2.401 5.0579-3.3834 8.2629-0.79254 2.5858-3.0814 15.082-3.5877 18.317-0.42533 2.7173 2.8939 36.565 4.0529 34.818" fill="url(#t)" fill-rule="evenodd" filter="url(#r)"/>
  <path transform="matrix(1.8491 -1.1576 .8156 1.607 63.266 547.54)" d="m101.67 141.84c-0.24679-8.2491 12.458 24.823 15.26 23.733 2.578-1.0026 0.42005-25.119 2.998-26.122l7.828-3.0442 7.8262-3.0435s-2.9779-2.127-7.1225-5.2521c-2.1126-1.593-4.5284-3.4452-7.0075-5.4073-2.2919-1.8139-23.857 10.885-26.067 9.0011-2.427-2.0678 14.528-18.713 12.679-20.566-3.2615-3.2673-5.2355-5.9572-4.5464-7.2124 0.5895-1.074 3.1282-1.0977 8.4776 0.46562 2.2639 0.66162 5.0312 1.6075 8.3672 2.8784 3.2733 1.247 13.231 32.386 16.052 33.46 3.3398 1.2723-0.54443-27.553 2.2126-26.503 3.464 1.3196 19.559 33.991 22.202 34.998 3.7678 1.4354-6.3104-28.944-3.9368-28.04l9.132 3.4789s-2.7424-2.523-6.4532-6.1399c-1.9215-1.8729-4.1026-4.039-6.297-6.3001-2.0813-2.1444-4.1745-4.3743-6.0697-6.5202-2.237-2.5329-4.1979-4.949-5.5374-6.9699-2.5773-3.8883-2.8539-6.3136 1.6312-5.2936 1.8726 0.4259 19.95 26.821 23.662 28.593 2.2534 1.0754-10.496-22.944-7.4592-21.287l7.9721 4.3484 7.9731 4.349c2.9158 1.5904 4.7962 26.867 7.2032 28.18 3.0234 1.6491 6.4334-20.742 8.7408-19.483l7.9733 4.3491 7.9734 4.3491s-2.4926-2.73-5.7862-6.7757c-1.6837-2.0682-3.5767-4.4801-5.453-7.047-1.7296-2.3662 25.767-7.939 24.243-10.42-1.6728-2.7233-32.328-2.3518-33.306-4.8399-1.3684-3.4807-1.8281-6.5399-0.73841-8.6418 1.0405-2.007-1.8878-19.285 2.5355-19.08 2.344 0.10848 10.623 16.737 14.156 17.667l8.2629 2.1745 8.2617 2.1741c3.1333 0.82456-2.5857 31.526-0.19444 32.155 3.4094 0.8972 14.572-28.372 16.719-27.807l8.2632 2.1745s27.916 18.44 31.348 15.32c1.826-1.66-21.466-24.304-19.39-26.192l5.9796-5.436c3.4323-3.1202 18.636 8.3776 18.636 8.3776s-9.726-16.093-6.1333-18.887c2.099-1.6325 2.1761 2.8553 4.2751 1.2228-0.00915-7.8247-0.17839 5.3212-0.17839 5.3212s-4.9643-11.402-0.53858-16.889l-9.4875-0.19766c-2.9462-0.06138-2.2901-7.8153-5.6439-7.8852-3.0448-0.06343-10.07 7.5578-13.332 7.4898l-9.4875-0.19766c-3.1548-0.06572 2.1234-8.5882-1.0314-8.6539-3.203-0.06673-14.838 8.3233-17.944 8.2586l-18.977-0.39535c3.3075-20.677-18.977-0.39536-18.977-0.39536l-8.9697 1.9027c-2.6017 0.55188-11.028-8.0272-14.35-7.3226-2.8243 0.5991-0.46711 10.466-3.5879 11.128l-8.9686 1.9024c-3.0181 0.6402-1.4236 18.193-4.3563 18.815-3.1211 0.66205-10.758-15.609-13.582-15.01l-8.9696 1.9026c-5.4627 1.1588-1.2818 25.734-1.2818 25.734s-11.009-22.682-14.849-18.587c-1.6929 1.805-3.4866 4.1823-5.1411 7.2857-1.2396 2.3252-2.401 5.0579-3.3834 8.2629-0.79254 2.5858-1.4685 5.4791-1.9748 8.7138-0.42533 2.7173-0.73095 5.6755-0.88543 8.8948-0.13346 2.7812-0.15411 5.7573-0.04168 8.9412 0.09917 2.8084 0.30187 5.7784 0.62202 8.9191" fill="url(#i)" fill-rule="evenodd" filter="url(#c)" opacity=".90556"/>
  <path d="m93.406 218.52s26.126-37.141 122.32-71.422c89.135-15.294 180.52-9.6071 180.52-9.6071s89.435 52.088 155.29 101.59c-45.964 9.4333-116.04 8.3862-116.04 8.3862s-88.2-3.3899-146.95 9.5507c-169.84 37.412-197.38 60.162-197.38 60.162s4.8824-34.565 3.8134-53.674c-1.7124-30.611-1.5798-44.99-1.5798-44.99z" fill="url(#m)" fill-rule="evenodd" opacity=".73333"/>
  <path d="m269.85 623.37c19.373-40.129 8.6585-33.976 61.249-121.51 59.183-68.384 107-96.624 147.13-124.3 22-15.172 70.108-59.895 130.28-89.717 29.964 41.994 71.267 128.99 71.267 128.99s-136.38 60.703-168.08 111.83c-50.765 81.895-61.671 138.78-61.671 138.78s0.87027-10.478-10.897 24.349c-164.18-57.976-130.54-40.745-169.29-68.42z" fill="url(#q)" fill-rule="evenodd" opacity=".73333"/>
  <path d="m82.652 335.29s43.402-16.135 152.64-48.241c89.135-15.294 189.85-30.192 189.85-30.192s82.08 5.6623 150.11-3.5395c-26.395 83.361-129.87 95.359-129.87 95.359s-56.191 34.791-95.75 82.887c-63.147 76.773-85.272 198.73-85.272 198.73-90.018-100.78-123.56-160.25-138.77-195.11-13.203-30.257-42.938-99.895-42.938-99.895z" fill="#c87137" fill-rule="evenodd" filter="url(#az)" opacity=".33889" stroke="#784421" stroke-width=".93683"/>
  <path transform="matrix(.85901 .51196 -.51196 .85901 133.91 -165.27)" d="m160.93 348.24s6.3071-38.409 56.696-103.86c37.574-48.805 182.07-121.08 178.61-115.31 0 0-23.257 5.1976-22.09-0.38999-15.653 2.0985-62.247 17.983-86.463 37.009-48.431 38.053-101.84 93.993-126.75 182.55z" fill="url(#p)" fill-rule="evenodd" filter="url(#d)" opacity=".83333" stroke="#fc0" stroke-width="7.0228"/>
  <path d="m110.7 198.9s119.34-59.258 177.12-60.885c98.247-2.7675 96.759-5.535 96.759-5.535s-114.75-2.7675-165.95-2.7675c-55.036 47.048-107.93 69.188-107.93 69.188z" fill="#fff" fill-rule="evenodd" filter="url(#f)" opacity=".85"/>
  <path d="m434.22 694.51s22.915-64.854 79.125-150.11c61.994-65.846 65.041-68.62 65.041-68.62s38.32-5.9937 107.76-31.969c29.382 43.822 61.422 87.008 61.422 87.008s-67.834 30.426-107.54 75.61c-79.313 90.249-74.341 126.28-74.341 126.28s-95.533-36.51-113.78-42.288c-26.259-8.3151-17.686 4.0886-17.686 4.0886z" fill="url(#aa)" fill-rule="evenodd" opacity=".73333"/>
  <g fill="#fff" fill-rule="evenodd" opacity=".66111">
   <path transform="matrix(.48132 -.54164 .47246 .63507 423.24 646.93)" d="m106.52 154.76c5.2063-4.1389 8.3664 0.85244 9.1463 5.6483 3.0667 6.5423 54.622-82.075 58.358-75.901 4.6413-7.2636-45.324 78.51-45.057 70.439 0.35846-6.7446 3.3954-17.012 9.6904-19.366 2.6071-0.30954 10.14 5.0584 3.8488 4.8615-3.7849-6.4103-11.664-12.996-18.838-7.4876-5.2014 1.3797-15.65 8.2194-17.984 0.6848 1.7156-6.9225 13.521-7.7293 11.96-15.987-4.0117-4.0753-3.0755-8.2088 2.9066-6.5459 7.4575-0.68094 15.411 4.4084 16.11 12.222 2.7114 7.5615 4.5681 15.455 8.1347 22.691 4.1582-6.2735-0.38012-13.827 1.1491-20.52 4.3039 1.5032 10.595 6.8003 16.728 4.9338 4.3933-3.6209 14.296-5.3012 15.591 1.5205-8.0808 1.3856-10.178-9.7625-15.759-13.652-3.6592-5.8161-8.6093-11.042-12.782-16.447-1.4424-9.57 11.899-5.9796 12.683 1.2592 4.7006 7.2615 103.6 41.348 108.72 48.32 0.00804-5.9229-101.99-37.688-99.089-43.543 7.8051 3.478 16.886 8.4652 18.153 17.82 1.5213 6.4577 1.8163 13.359 5.0939 19.277 0.13987-6.7024 80.487-8.8657 89.873-10.473 5.9222-4.7403 23.033 1.0608 23.481 8.3968 2.8679-3.8876-99.475-20.593-101.7-25.323 2.3024-6.8909 17.467-7.78 19.74-11.837-9.8093-1.311-19.779 0.16007-29.565-1.4267-3.8958-7.3521 3.6509-15.338-0.07808-22.975 2.4226-8.962 8.2551 1.0201 10.171 4.8404 3.8485 8.2181 12.194 10.048 20.258 10.534 7.6945 1.4274 15.967 50.718 23.038 54.022 6.3034 0.76814 10.81-42.971 15.858-39.104 4.6434 2.785 9.3302 7.1039 14.899 7.171-3.9592-4.2174-11.437-7.0074-16.69-10.739-8.3557-5.0332-16.625-10.304-24.036-16.678 3.146-6.4704 12.665-4.9556 18.23-7.7169 8.5849 0.68661 15.571 6.3843 23.324 9.5495 5.4421 2.5046 14.394 8.63 17.148 9.7729-6.0739-7.4321-10.896-15.806-14.981-24.469-2.6802-6.9927 11.322-9.0341 11.269-9.9959-6.9982 0.2228-15.476-1.3805-20.72-5.9624-3.3737-4.8618-9.6779-3.1925-9.8986 2.7594-4.0422 5.884-16.43 2.7374-15.466 12.805-0.27952 2.9362 2.0808 70.628 1.2021 70.31 1.159-9.6909 0.20706-79.372-0.43218-89.169-7.3276 1.9294-13.916 6.7684-20.552 9.7964-5.3984 6.0898-4.7522 14.729-6.1198 22.24-4.0672 0.93893-2.93-9.1781-4.6386-12.561-1.8055-7.1419-4.6259-14.582-2.4318-21.985-0.25495-7.5847-8.3347-2.3731-7.7297 2.8719-0.53097 5.4806-5.5307 9.9187-9.9996 4.7637-5.9832-1.8562-9.8638 7.0553-15.348 1.1462-3.7058-2.9075-15.798-8.2695-11.616 1.0716 3.3771 7.4552 7.2532 14.682 9.9102 22.454 3.2857 6.15-4.3105 6.4652-6.7186 2.0473-6.2997-3.9681-4.9815-29.761-11.811-32.306-8.1401 1.8352-11.869 8.5125-19.138 12.671-6.003 5.7041-5.845 33.059-12.338 38.211-3.5196 3.4839-10.941-72.326-9.5093-77.253 1.3015-8.6645-63.538 38.79-63.75 29.951-5.7722-6.1367 60.871 20.648 56.833 23.474-7.4226-1.3658-50.308-4.362-11.392 12.08 2.1592 8.0246-61.994 28.641-60.276 36.712-1.1269 9.0571 61.508 4.086 62.021 12.98 1.3314 2.8668-7.2143 8.5605-3.3921 7.8304 0.57871-0.60538 1.1004-1.2637 1.575-1.9531" filter="url(#b)" opacity=".99444"/>
   <path transform="matrix(.57355 -.06704 .0569 .67047 553.39 478.97)" d="m106.52 154.76c5.2063-4.1389 8.3664 0.85244 9.1463 5.6483 3.0667 6.5423 54.622-82.075 58.358-75.901 4.6413-7.2636-45.324 78.51-45.057 70.439 0.35846-6.7446 3.3954-17.012 9.6904-19.366 2.6071-0.30954 10.14 5.0584 3.8488 4.8615-3.7849-6.4103-11.664-12.996-18.838-7.4876-5.2014 1.3797-15.65 8.2194-17.984 0.6848 1.7156-6.9225 13.521-7.7293 11.96-15.987-4.0117-4.0753-3.0755-8.2088 2.9066-6.5459 7.4575-0.68094 15.411 4.4084 16.11 12.222 2.7114 7.5615 4.5681 15.455 8.1347 22.691 4.1582-6.2735-0.38012-13.827 1.1491-20.52 4.3039 1.5032 10.595 6.8003 16.728 4.9338 4.3933-3.6209 14.296-5.3012 15.591 1.5205-8.0808 1.3856-10.178-9.7625-15.759-13.652-3.6592-5.8161-8.6093-11.042-12.782-16.447-1.4424-9.57 11.899-5.9796 12.683 1.2592 4.7006 7.2615 103.6 41.348 108.72 48.32 0.00804-5.9229-101.99-37.688-99.089-43.543 7.8051 3.478 16.886 8.4652 18.153 17.82 1.5213 6.4577 1.8163 13.359 5.0939 19.277 0.13987-6.7024 80.487-8.8657 89.873-10.473 5.9222-4.7403 23.033 1.0608 23.481 8.3968 2.8679-3.8876-99.475-20.593-101.7-25.323 2.3024-6.8909 17.467-7.78 19.74-11.837-9.8093-1.311-19.779 0.16007-29.565-1.4267-3.8958-7.3521 3.6509-15.338-0.07808-22.975 2.4226-8.962 8.2551 1.0201 10.171 4.8404 3.8485 8.2181 12.194 10.048 20.258 10.534 7.6945 1.4274 15.967 50.718 23.038 54.022 6.3034 0.76814 10.81-42.971 15.858-39.104 4.6434 2.785 9.3302 7.1039 14.899 7.171-3.9592-4.2174-11.437-7.0074-16.69-10.739-8.3557-5.0332-16.625-10.304-24.036-16.678 3.146-6.4704 12.665-4.9556 18.23-7.7169 8.5849 0.68661 15.571 6.3843 23.324 9.5495 5.4421 2.5046 14.394 8.63 17.148 9.7729-6.0739-7.4321-10.896-15.806-14.981-24.469-2.6802-6.9927 11.322-9.0341 11.269-9.9959-6.9982 0.2228-15.476-1.3805-20.72-5.9624-3.3737-4.8618-9.6779-3.1925-9.8986 2.7594-4.0422 5.884-16.43 2.7374-15.466 12.805-0.27952 2.9362 2.0808 70.628 1.2021 70.31 1.159-9.6909 0.20706-79.372-0.43218-89.169-7.3276 1.9294-13.916 6.7684-20.552 9.7964-5.3984 6.0898-4.7522 14.729-6.1198 22.24-4.0672 0.93893-2.93-9.1781-4.6386-12.561-1.8055-7.1419-4.6259-14.582-2.4318-21.985-0.25495-7.5847-8.3347-2.3731-7.7297 2.8719-0.53097 5.4806-5.5307 9.9187-9.9996 4.7637-5.9832-1.8562-9.8638 7.0553-15.348 1.1462-3.7058-2.9075-15.798-8.2695-11.616 1.0716 3.3771 7.4552 7.2532 14.682 9.9102 22.454 3.2857 6.15-4.3105 6.4652-6.7186 2.0473-6.2997-3.9681-4.9815-29.761-11.811-32.306-8.1401 1.8352-11.869 8.5125-19.138 12.671-6.003 5.7041-5.845 33.059-12.338 38.211-3.5196 3.4839-10.941-72.326-9.5093-77.253 1.3015-8.6645-63.538 38.79-63.75 29.951-5.7722-6.1367 60.871 20.648 56.833 23.474-7.4226-1.3658-50.308-4.362-11.392 12.08 2.1592 8.0246-79.024 41.849-77.307 49.92-1.1269 9.0571 78.539-9.122 79.051-0.22774 1.3314 2.8668-7.2143 8.5605-3.3921 7.8304 0.57871-0.60538 1.1004-1.2637 1.575-1.9531" filter="url(#b)" opacity=".99444"/>
  </g>
  <path transform="matrix(1.5601 -1.052 1.0939 .72588 194.57 708.79)" d="m96.441 148.58 7.8276-3.0441c2.3361-0.90848 10.408 31.87 13.21 30.781 2.578-1.0026-0.13079-35.867 2.4472-36.869l7.828-3.0442 7.8262-3.0435s-2.9779-2.127-7.1225-5.2521c-2.1126-1.593-4.5284-3.4452-7.0075-5.4073-2.2919-1.8139-23.857 10.885-26.067 9.0011-2.427-2.0678 14.528-18.713 12.679-20.566-3.2615-3.2673-5.2355-5.9572-4.5464-7.2124 0.5895-1.074 3.1282-1.0977 8.4776 0.46562 2.2639 0.66162 5.0312 1.6075 8.3672 2.8784 3.2733 1.247 13.231 32.386 16.052 33.46 3.3398 1.2723-0.54443-27.553 2.2126-26.503 3.464 1.3196 19.559 33.991 22.202 34.998 3.7678 1.4354-6.3104-28.944-3.9368-28.04l9.132 3.4789s-2.7424-2.523-6.4532-6.1399c-1.9215-1.8729-4.1026-4.039-6.297-6.3001-2.0813-2.1444-4.1745-4.3743-6.0697-6.5202-2.237-2.5329-4.1979-4.949-5.5374-6.9699-2.5773-3.8883-2.8539-6.3136 1.6312-5.2936 1.8726 0.4259 19.95 26.821 23.662 28.593 2.2534 1.0754-10.496-22.944-7.4592-21.287l7.9721 4.3484 7.9731 4.349c2.9158 1.5904 4.7962 26.867 7.2032 28.18 3.0234 1.6491 6.4334-20.742 8.7408-19.483l7.9733 4.3491 7.9734 4.3491s-2.4926-2.73-5.7862-6.7757c-1.6837-2.0682-3.5767-4.4801-5.453-7.047-1.7296-2.3662 25.767-7.939 24.243-10.42-1.6728-2.7233-32.328-2.3518-33.306-4.8399-1.3684-3.4807-1.8281-6.5399-0.73841-8.6418 1.0405-2.007-1.8878-19.285 2.5355-19.08 2.344 0.10848 10.623 16.737 14.156 17.667l8.2629 2.1745 8.2617 2.1741c3.1333 0.82456-2.5857 31.526-0.19444 32.155 3.4094 0.8972 14.572-28.372 16.719-27.807l8.2632 2.1745s12.042 18.311 15.474 15.191c1.826-1.66-5.5919-24.174-3.5154-26.062l5.9796-5.436c3.4323-3.1202 5.7817 17.038 5.7817 17.038s3.1284-24.754 6.7212-27.548l6.523-5.0735c3.5928-2.7944-4.0476-12.767-4.0476-12.767s6.9603 7.6186 1.0826 7.4962l-9.4875-0.19766c-2.9462-0.06138-2.2901-7.8153-5.6439-7.8852-3.0448-0.06343-10.07 7.5578-13.332 7.4898l-9.4875-0.19766c-3.1548-0.06572 2.1234-8.5882-1.0314-8.6539-3.203-0.06673-14.838 8.3233-17.944 8.2586l-9.4883-0.19767-9.4886-0.19768c3.3075-20.677 0.70931-22.572-9.4891-0.19769l-9.4884-0.19768-8.9697 1.9027c-2.6017 0.55188-11.028-8.0272-14.35-7.3226-2.8243 0.5991-0.46711 10.466-3.5879 11.128l-8.9686 1.9024c-3.0181 0.6402-1.4236 18.193-4.3563 18.815-3.1211 0.66205-10.758-15.609-13.582-15.01l-8.9696 1.9026c-5.4627 1.1588-1.2818 25.734-1.2818 25.734s-11.009-22.682-14.849-18.587c-1.6929 1.805-3.4866 4.1823-5.1411 7.2857-1.2396 2.3252-2.401 5.0579-3.3834 8.2629-0.79254 2.5858-1.4685 5.4791-1.9748 8.7138-0.42533 2.7173-0.73095 5.6755-0.88543 8.8948-0.13346 2.7812-0.15411 5.7573-0.04168 8.9412 0.09917 2.8084 0.30187 5.7784 0.62202 8.9191 0.2871 2.8164 0.66865 5.7701 1.1547 8.8674 0.44143 2.813 0.96904 5.7445 1.5904 8.7993" fill="url(#i)" fill-rule="evenodd" filter="url(#c)" opacity=".90556"/>
  <g fill="#fff" fill-rule="evenodd" opacity=".66111">
   <path transform="matrix(.17721 -.55215 .54255 .33032 580.64 738.69)" d="m106.52 154.76c5.2063-4.1389 8.3664 0.85244 9.1463 5.6483 3.0667 6.5423 54.622-82.075 58.358-75.901 4.6413-7.2636-45.324 78.51-45.057 70.439 0.35846-6.7446 3.3954-17.012 9.6904-19.366 2.6071-0.30954 10.14 5.0584 3.8488 4.8615-3.7849-6.4103-11.664-12.996-18.838-7.4876-5.2014 1.3797-15.65 8.2194-17.984 0.6848 1.7156-6.9225 13.521-7.7293 11.96-15.987-4.0117-4.0753-3.0755-8.2088 2.9066-6.5459 7.4575-0.68094 15.411 4.4084 16.11 12.222 2.7114 7.5615 4.5681 15.455 8.1347 22.691 4.1582-6.2735-0.38012-13.827 1.1491-20.52 4.3039 1.5032 10.595 6.8003 16.728 4.9338 4.3933-3.6209 14.296-5.3012 15.591 1.5205-8.0808 1.3856-10.178-9.7625-15.759-13.652-3.6592-5.8161-8.6093-11.042-12.782-16.447-1.4424-9.57 11.899-5.9796 12.683 1.2592 4.7006 7.2615 103.6 41.348 108.72 48.32 0.00804-5.9229-101.99-37.688-99.089-43.543 7.8051 3.478 16.886 8.4652 18.153 17.82 1.5213 6.4577 1.8163 13.359 5.0939 19.277 0.13987-6.7024 80.487-8.8657 89.873-10.473 5.9222-4.7403 23.033 1.0608 23.481 8.3968 2.8679-3.8876-99.475-20.593-101.7-25.323 2.3024-6.8909 17.467-7.78 19.74-11.837-9.8093-1.311-19.779 0.16007-29.565-1.4267-3.8958-7.3521 3.6509-15.338-0.07808-22.975 2.4226-8.962 8.2551 1.0201 10.171 4.8404 3.8485 8.2181 12.194 10.048 20.258 10.534 7.6945 1.4274 15.967 50.718 23.038 54.022 6.3034 0.76814 10.81-42.971 15.858-39.104 4.6434 2.785 9.3302 7.1039 14.899 7.171-3.9592-4.2174-11.437-7.0074-16.69-10.739-8.3557-5.0332-16.625-10.304-24.036-16.678 3.146-6.4704 12.665-4.9556 18.23-7.7169 8.5849 0.68661 15.571 6.3843 23.324 9.5495 5.4421 2.5046 14.394 8.63 17.148 9.7729-6.0739-7.4321-10.896-15.806-14.981-24.469-2.6802-6.9927 11.322-9.0341 11.269-9.9959-6.9982 0.2228-15.476-1.3805-20.72-5.9624-3.3737-4.8618-9.6779-3.1925-9.8986 2.7594-4.0422 5.884-16.43 2.7374-15.466 12.805-0.27952 2.9362 2.0808 70.628 1.2021 70.31 1.159-9.6909 0.20706-79.372-0.43218-89.169-7.3276 1.9294-13.916 6.7684-20.552 9.7964-5.3984 6.0898-4.7522 14.729-6.1198 22.24-4.0672 0.93893-2.93-9.1781-4.6386-12.561-1.8055-7.1419-4.6259-14.582-2.4318-21.985-0.25495-7.5847-8.3347-2.3731-7.7297 2.8719-0.53097 5.4806-5.5307 9.9187-9.9996 4.7637-5.9832-1.8562-9.8638 7.0553-15.348 1.1462-3.7058-2.9075-15.798-8.2695-11.616 1.0716 3.3771 7.4552 7.2532 14.682 9.9102 22.454 3.2857 6.15-4.3105 6.4652-6.7186 2.0473-6.2997-3.9681-4.9815-29.761-11.811-32.306-8.1401 1.8352-11.869 8.5125-19.138 12.671-6.003 5.7041-5.845 33.059-12.338 38.211-3.5196 3.4839-10.941-72.326-9.5093-77.253 1.3015-8.6645-63.538 38.79-63.75 29.951-5.7722-6.1367 60.871 20.648 56.833 23.474-7.4226-1.3658-50.308-4.362-11.392 12.08 2.1592 8.0246-27.204 15.906-25.487 23.977-1.1269 9.0571 26.719 16.821 27.231 25.715 1.3314 2.8668-7.2143 8.5605-3.3921 7.8304 0.57871-0.60538 1.1004-1.2637 1.575-1.9531" filter="url(#b)" opacity=".99444"/>
   <path transform="matrix(.39389 -.22552 .25299 .48387 621.76 573.32)" d="m106.52 154.76c5.2063-4.1389 8.3664 0.85244 9.1463 5.6483 3.0667 6.5423 54.622-82.075 58.358-75.901 4.6413-7.2636-45.324 78.51-45.057 70.439 0.35846-6.7446 3.3954-17.012 9.6904-19.366 2.6071-0.30954 10.14 5.0584 3.8488 4.8615-3.7849-6.4103-11.664-12.996-18.838-7.4876-5.2014 1.3797-15.65 8.2194-17.984 0.6848 1.7156-6.9225 13.521-7.7293 11.96-15.987-4.0117-4.0753-3.0755-8.2088 2.9066-6.5459 7.4575-0.68094 15.411 4.4084 16.11 12.222 2.7114 7.5615 4.5681 15.455 8.1347 22.691 4.1582-6.2735-0.38012-13.827 1.1491-20.52 4.3039 1.5032 10.595 6.8003 16.728 4.9338 4.3933-3.6209 14.296-5.3012 15.591 1.5205-8.0808 1.3856-10.178-9.7625-15.759-13.652-3.6592-5.8161-8.6093-11.042-12.782-16.447-1.4424-9.57 11.899-5.9796 12.683 1.2592 4.7006 7.2615 103.6 41.348 108.72 48.32 0.00804-5.9229-101.99-37.688-99.089-43.543 7.8051 3.478 16.886 8.4652 18.153 17.82 1.5213 6.4577 1.8163 13.359 5.0939 19.277 0.13987-6.7024 80.487-8.8657 89.873-10.473 5.9222-4.7403 23.033 1.0608 23.481 8.3968 2.8679-3.8876-99.475-20.593-101.7-25.323 2.3024-6.8909 17.467-7.78 19.74-11.837-9.8093-1.311-19.779 0.16007-29.565-1.4267-3.8958-7.3521 3.6509-15.338-0.07808-22.975 2.4226-8.962 8.2551 1.0201 10.171 4.8404 3.8485 8.2181 12.194 10.048 20.258 10.534 7.6945 1.4274 15.967 50.718 23.038 54.022 6.3034 0.76814 10.81-42.971 15.858-39.104 4.6434 2.785 9.3302 7.1039 14.899 7.171-3.9592-4.2174-11.437-7.0074-16.69-10.739-8.3557-5.0332-16.625-10.304-24.036-16.678 3.146-6.4704 12.665-4.9556 18.23-7.7169 8.5849 0.68661 15.571 6.3843 23.324 9.5495 5.4421 2.5046 14.394 8.63 17.148 9.7729-6.0739-7.4321-10.896-15.806-14.981-24.469-2.6802-6.9927 11.322-9.0341 11.269-9.9959-6.9982 0.2228-15.476-1.3805-20.72-5.9624-3.3737-4.8618-9.6779-3.1925-9.8986 2.7594-4.0422 5.884-16.43 2.7374-15.466 12.805-0.27952 2.9362 2.0808 70.628 1.2021 70.31 1.159-9.6909 0.20706-79.372-0.43218-89.169-7.3276 1.9294-13.916 6.7684-20.552 9.7964-5.3984 6.0898-4.7522 14.729-6.1198 22.24-4.0672 0.93893-2.93-9.1781-4.6386-12.561-1.8055-7.1419-4.6259-14.582-2.4318-21.985-0.25495-7.5847-8.3347-2.3731-7.7297 2.8719-0.53097 5.4806-5.5307 9.9187-9.9996 4.7637-5.9832-1.8562-9.8638 7.0553-15.348 1.1462-3.7058-2.9075-15.798-8.2695-11.616 1.0716 3.3771 7.4552 7.2532 14.682 9.9102 22.454 3.2857 6.15-4.3105 6.4652-6.7186 2.0473-6.2997-3.9681-4.9815-29.761-11.811-32.306-8.1401 1.8352-11.869 8.5125-19.138 12.671-6.003 5.7041-5.845 33.059-12.338 38.211-3.5196 3.4839-10.941-72.326-9.5093-77.253 1.3015-8.6645-63.538 38.79-63.75 29.951-5.7722-6.1367 60.871 20.648 56.833 23.474-7.4226-1.3658-50.308-4.362-11.392 12.08 2.1592 8.0246-79.024 41.849-77.307 49.92-1.1269 9.0571 78.539-9.122 79.051-0.22774 1.3314 2.8668-7.2143 8.5605-3.3921 7.8304 0.57871-0.60538 1.1004-1.2637 1.575-1.9531" filter="url(#b)" opacity=".99444"/>
  </g>
  <path d="m428.88 678.72c19.373-40.129 41.869-53.349 94.459-140.89 59.183-68.384 79.33-60.647 119.46-88.322 22-15.172-29.522-10.08 30.65-39.902 29.964 41.994 71.267 123.45 71.267 123.45s-42.289-0.18232-73.981 50.945c-50.765 81.895-61.671 138.78-61.671 138.78s0.87027-10.478-10.897 24.349c-164.18-57.976-130.54-40.745-169.29-68.42z" fill="url(#at)" fill-rule="evenodd" opacity=".73333"/>
  <path transform="matrix(.9112 -.41196 .41196 .9112 -147.11 299.46)" d="m391.84 610.15s86.972-95.152 160.06-117.19c94.099-28.381 148.62-34.482 148.62-34.482s-135.94 18.788-197.4 41.484c-55.036 47.048-111.29 110.19-111.29 110.19z" fill="#fff" fill-rule="evenodd" filter="url(#f)" opacity=".85"/>
  <path transform="matrix(.93985 -1.0597 1.6874 -.32318 357.67 881.3)" d="m96.441 148.58 7.8276-3.0441c2.3361-0.90848 10.408 31.87 13.21 30.781 2.578-1.0026-0.13079-35.867 2.4472-36.869l7.828-3.0442 7.8262-3.0435s-2.9779-2.127-7.1225-5.2521c-2.1126-1.593-4.5284-3.4452-7.0075-5.4073-2.2919-1.8139-23.857 10.885-26.067 9.0011-2.427-2.0678 14.528-18.713 12.679-20.566-3.2615-3.2673-5.2355-5.9572-4.5464-7.2124 0.5895-1.074 3.1282-1.0977 8.4776 0.46562 2.2639 0.66162 5.0312 1.6075 8.3672 2.8784 3.2733 1.247 13.231 32.386 16.052 33.46 3.3398 1.2723-0.54443-27.553 2.2126-26.503 3.464 1.3196 19.559 33.991 22.202 34.998 3.7678 1.4354-6.3104-28.944-3.9368-28.04l9.132 3.4789s-2.7424-2.523-6.4532-6.1399c-1.9215-1.8729-4.1026-4.039-6.297-6.3001-2.0813-2.1444-4.1745-4.3743-6.0697-6.5202-2.237-2.5329-4.1979-4.949-5.5374-6.9699-2.5773-3.8883-2.8539-6.3136 1.6312-5.2936 1.8726 0.4259 19.95 26.821 23.662 28.593 2.2534 1.0754-10.496-22.944-7.4592-21.287l7.9721 4.3484 7.9731 4.349c2.9158 1.5904 4.7962 26.867 7.2032 28.18 3.0234 1.6491 6.4334-20.742 8.7408-19.483l7.9733 4.3491 7.9734 4.3491s-2.4926-2.73-5.7862-6.7757c-1.6837-2.0682-3.5767-4.4801-5.453-7.047-1.7296-2.3662 25.767-7.939 24.243-10.42-1.6728-2.7233-32.328-2.3518-33.306-4.8399-1.3684-3.4807-1.8281-6.5399-0.73841-8.6418 1.0405-2.007-1.8878-19.285 2.5355-19.08 2.344 0.10848 10.623 16.737 14.156 17.667l8.2629 2.1745 8.2617 2.1741c3.1333 0.82456-2.5857 31.526-0.19444 32.155 3.4094 0.8972 14.572-28.372 16.719-27.807l8.2632 2.1745s3.0852 14.23 6.5173 11.11c1.826-1.66 3.3648-20.093 5.4412-21.981l5.9796-5.436c3.4323-3.1202 13.483 3.8774 13.483 3.8774s-4.5725-11.593-0.97973-14.387l6.523-5.0735 6.5231-5.0735-9.4881-0.19767-9.4875-0.19766c-2.9462-0.06138-2.2901-7.8153-5.6439-7.8852-3.0448-0.06343-10.07 7.5578-13.332 7.4898l-9.4875-0.19766c-3.1548-0.06572 2.1234-8.5882-1.0314-8.6539-3.203-0.06673-14.838 8.3233-17.944 8.2586l-9.4883-0.19767-9.4886-0.19768c3.3075-20.677 0.70931-22.572-9.4891-0.19769l-9.4884-0.19768-8.9697 1.9027c-2.6017 0.55188-11.028-8.0272-14.35-7.3226-2.8243 0.5991-0.46711 10.466-3.5879 11.128l-8.9686 1.9024c-3.0181 0.6402-1.4236 18.193-4.3563 18.815-3.1211 0.66205-10.758-15.609-13.582-15.01l-8.9696 1.9026c-5.4627 1.1588-1.2818 25.734-1.2818 25.734s1.8415-13.438-1.9986-9.3437c-1.6929 1.805-22.986 47.544-22.5 50.641 0.44143 2.813 0.96904 5.7445 1.5904 8.7993" fill="url(#ar)" fill-rule="evenodd" filter="url(#c)" opacity=".90556"/>
  <path d="m595.19 739.81c19.373-40.129-0.45449-28.638 52.136-116.18 59.183-68.384 37.353-62.424 97.526-92.246 29.964 41.994-1.4641-20.638 30.496 47.094-58.513 67.767-68.856 151.47-68.856 151.47s-124.5 9.9548-111.3 9.8543z" fill="url(#as)" fill-rule="evenodd" opacity=".73333"/>
  <path d="m459.21 649.3s9.6863-46.118 60.075-111.57c37.573-48.805 164.52-108.78 164.52-108.78s-6.6689 11.05-9.1753-5.6657c-18.162 2.854-61.069 16.729-85.285 35.755-48.431 38.053-105.22 101.7-130.13 190.26z" fill="url(#aq)" fill-rule="evenodd" filter="url(#d)" stroke="#c87137" stroke-width="7.0228"/>
  <path transform="matrix(2.2306 -1.1408 .98387 1.5837 -158.08 463.89)" d="m116.77 147.5s-17.102-0.17133-12.501-1.9605c2.3361-0.90848 21.766-47.325 24.568-48.414 2.578-1.0026-0.35012-11.773 1.9858-12.682 4.5999-1.7888 4.7575 48.92 4.7575 48.92s0.29103-71.421-3.8536-74.546c-2.1126-1.593 2.0184 37.969-0.46067 36.007-2.2919-1.8139-21.355 18.168-23.205 16.315-3.2615-3.2673 12.341-31.742 13.03-32.997 0.5895-1.074-14.448 24.687-9.0988 26.25 2.2639 0.66162 21.598 35.264 24.419 36.339 3.3398 1.2723-0.54443-27.553 2.2126-26.503l27.397 10.437s-23.018-23.909-24.357-25.93c-2.5773-3.8883-2.8539-6.3136 1.6312-5.2936 1.8726 0.4259 19.95 26.821 23.662 28.593 2.2534 1.0754-10.496-22.944-7.4592-21.287l39.863 21.743c7.9734 4.3491 5.4807 1.6191 2.1872-2.4266-1.6837-2.0682-3.5767-4.4801-5.453-7.047-1.7296-2.3662 25.767-7.939 24.243-10.42-1.6728-2.7233-32.328-2.3518-33.306-4.8399-1.3684-3.4807-35.367-28.952-34.277-31.054 1.0405-2.007 31.651 3.1274 36.074 3.3321-34.476-17.677 10.623 16.737 14.156 17.667 2.9615 0.77935 6.0111-24.494 8.5633-23.822 3.0218 0.7952 5.4669 27.514 7.9614 28.171 3.1333 0.82456 12.394 0.37646 14.786 1.0057 3.4094 0.8972-0.4085 2.7777 1.7393 3.3429l8.2632 2.1745s27.532 2.4355 30.964-0.68465c1.826-1.66-50.598-17.328-48.521-19.216s86.667 3.2381 88.494 1.5779c3.4323-3.1202-24.724 17.336-24.724 17.336s-54.272-25.464-50.679-28.259c-0.24696-1.6111-32.655-0.35541 41.432-2.6446 3.5928-2.7944 19.047 11.716 13.169 11.594-2.721-0.05669-22.062-16.989-25.622-17.063-2.9462-0.06138-33.276 11.804-36.63 11.734-3.0448-0.06343 20.916-12.062 17.654-12.13l-9.4875-0.19766c-3.1548-0.06572-21.23 7.7918-24.385 7.726-3.203-0.06673-27.92-9.8377-31.026-9.9024-3.2619-0.06796 29.992 1.6468 26.947 1.5833-3.3541-0.06988-28.754-0.4092-31.701-0.47058 3.3075-20.677 16.631-53.043 6.4326-30.669-5.8779-0.12246-11.628-12.224-11.628-12.224s-23.251 0.50127-28.714 1.6601c-2.6017 0.55188 17.146 34.986 13.824 35.691-2.8243 0.5991-0.46711 10.466-3.5879 11.128-26.07-50.996-12.185-1.481-15.203-0.84086s4.8105 20.936 1.8779 21.558c-3.1211 0.66205-2.6812-90.178-11.527-44.985-3.322 0.70466-6.0392-10.645-8.6411-10.094-5.4627 1.1588 2.7127 25.116 2.7127 25.116s-17.387 19.907-21.227 24.002c-1.6929 1.805 5.8162-45.037 4.1617-41.934-1.2396 2.3252-4.2997 58.376-5.282 61.581-0.79254 2.5858 2.0174-17.342 1.5111-14.107-0.42533 2.7173 9.3518-1.2718 9.1973 1.9475-0.13346 2.7812-2.2648-56.342-2.1523-53.158" fill="#fff" fill-rule="evenodd" filter="url(#c)" opacity=".90556"/>
  <path transform="matrix(2.2306 -1.1408 .98387 1.5837 -158.08 463.89)" d="m116.77 147.5s-14.827-5.3289-10.226-7.1181c2.3361-0.90848 10.444 17.723 13.246 16.633 2.578-1.0026 5.6275-19.7 7.9635-20.608l7.8262-3.0435s0.29103-71.421-3.8536-74.546c-2.1126-1.593-7.7974 65.849-10.276 63.887-2.2919-1.8139-11.539-9.7115-13.389-11.564-3.2615-3.2673-5.2355-5.9572-4.5464-7.2124 0.5895-1.074 3.1282-1.0977 8.4776 0.46562 2.2639 0.66162 5.0312 1.6075 8.3672 2.8784 3.2733 1.247 13.231 32.386 16.052 33.46 3.3398 1.2723-0.54443-27.553 2.2126-26.503l18.265 6.9582 9.132 3.4789s-2.7424-2.523-6.4532-6.1399c-1.9215-1.8729-4.1026-4.039-6.297-6.3001-2.0813-2.1444-4.1745-4.3743-6.0697-6.5202-2.237-2.5329-4.1979-4.949-5.5374-6.9699-2.5773-3.8883-2.8539-6.3136 1.6312-5.2936 1.8726 0.4259 19.95 26.821 23.662 28.593 2.2534 1.0754-10.496-22.944-7.4592-21.287l7.9721 4.3484 7.9731 4.349 15.944 8.6967 7.9733 4.3491c7.9734 4.3491 5.4807 1.6191 2.1872-2.4266-1.6837-2.0682-3.5767-4.4801-5.453-7.047-1.7296-2.3662 25.767-7.939 24.243-10.42-1.6728-2.7233-32.328-2.3518-33.306-4.8399-1.3684-3.4807-35.367-28.952-34.277-31.054 1.0405-2.007 31.651 3.1274 36.074 3.3321-34.476-17.677 10.623 16.737 14.156 17.667l8.2629 2.1745 8.2617 2.1741c3.1333 0.82456 12.394 0.37646 14.786 1.0057 3.4094 0.8972-0.4085 2.7777 1.7393 3.3429l8.2632 2.1745s27.532 2.4355 30.964-0.68465c1.826-1.66-21.082-8.299-19.005-10.187s57.151-5.7913 58.978-7.4515c3.4323-3.1202-24.724 17.336-24.724 17.336s-19.364-23.035-15.771-25.83l6.523-5.0735c3.5928-2.7944 19.047 11.716 13.169 11.594-2.721-0.05669-22.062-16.989-25.622-17.063-2.9462-0.06138-2.2901-7.8153-5.6439-7.8852-3.0448-0.06343-10.07 7.5578-13.332 7.4898l-9.4875-0.19766c-3.1548-0.06572 2.1234-8.5882-1.0314-8.6539-3.203-0.06673-38.176-25.964-41.282-26.029-3.2619-0.06796 16.895 34.153 13.85 34.09-3.3541-0.06988-39.981-31.214-42.927-31.276 3.3075-20.677 27.857-22.238 17.659 0.13586-5.8779-0.12246-11.628-12.224-11.628-12.224s-23.251 0.50127-28.714 1.6601c-2.6017 0.55188 17.146 34.986 13.824 35.691-2.8243 0.5991-0.46711 10.466-3.5879 11.128-26.07-50.996-9.6729-38.117-12.691-37.477s2.2986 57.573-0.634 58.195c-3.1211 0.66205-2.994-128.85-11.84-83.656-3.322 0.70466-5.7265 28.026-8.3284 28.578-5.4627 1.1588 2.7127 25.116 2.7127 25.116s-17.387 19.907-21.227 24.002c-1.6929 1.805 5.8162-45.037 4.1617-41.934-1.2396 2.3252-8.511 51.017-9.4934 54.222-0.79254 2.5858 3.1465 6.95 2.6402 10.185-0.42533 2.7173 2.411 18.442 2.2565 21.662-0.13346 2.7812 7.7583-92.989 7.8707-89.805" fill="url(#i)" fill-rule="evenodd" filter="url(#c)" opacity=".90556"/>
  <path d="m578.58 721.71s11.643-34.377 62.032-99.827c37.573-48.805 96.469-93.481 96.469-93.481s13.332 17.667 10.826 0.95133c-56.844 18.966-90.567 96.258-125.3 133.21-23.154 24.632-6.9799 31.243-33.77 59.557s2.1977-44.689-10.256-0.40856z" fill="url(#an)" fill-rule="evenodd" filter="url(#d)" stroke="#c87137" stroke-width="7.0228"/>
  <path transform="matrix(.56921 -.66538 .67602 -.015674 580.97 789.72)" d="m143.12 193.51c4.9177-5.3544-9.2201-56.326-9.6798-61.623 9.17 92.118 67.824 64.381 59.887 65.379-5.8817 1.912-88.71-77.397-85.6-83.809-0.99757-3.3856 28.592 12.485 29.388 5.4855 2.6882-7.5666 16.657 21.05 22.028 28.038 5.0906 1.0582-5.4663 4.215-3.0518 7.6355 4.3511 5.8056 22.473-30.609 24.45-23.472 0.35037 3.4313-30.938 54.365-28.133 49.424 3.057-4.7999 27.342 12.82 32.739 9.4271 4.8202-0.99038 18.879-18.508 21.357-22.125-4.3692-3.3063-60.729-26.422-67.513-28.254 5.7253 52.454 90.219-7.0632 89.452-0.45516 7.5602 9.5811 12.663-44.298 18.398-38.96 7.9224 4.7855-12.68 29.577-4.1312 33.152 7.2746-1.2664 27.536-27.388 25.188-30.196-3.887-4.4389-0.94322-22.386 3.4869-18.591 6.2062 4.515 16.171-20.986 22.251-16.228-5.8042-7.3616-13.639 0.66886-17.426-8.0129-0.59188-6.736 35.721-17.393 36.189-23.218-3.7224-2.3456-4.6516-1.503-9.1835-3.1253 24.924-26.43-1.9842-15.69-8.0992-9.4386-4.1694 4.5289-55.217 26.138-59.831 28.522-5.1872 3.3752-10.554 7.4739-17.121 7.0793-5.6041 0.21156-15.966 2.2816-15.533-6.386 3.3682-2.821-94.936 52.596-92.27 61.288 2.3757 5.4503 29.434 75.375 32.759 78.462z" fill="#f9f9f9" fill-rule="evenodd" filter="url(#c)" opacity=".96667"/>
  <path d="m682.3 719.75s7.7294 10.632 26.807-27.421c27.604-55.061 74.943-107.18 74.943-107.18s9.4183 19.624 6.9119 2.9082c-56.844 18.966-51.429 53.205-68.55 103.85-10.826 32.026-5.023 5.803-31.813 34.117s4.1546-50.559-8.2992-6.2793z" fill="url(#am)" fill-rule="evenodd" filter="url(#d)" stroke="#c87137" stroke-width="7.0228"/>
  <path transform="matrix(.56921 -.56667 .67602 -.013349 580.97 778.83)" d="m140.05 201.77c4.9177-5.3544-21.801-26.162-20.675-54.864 9.17 92.118 81.89 49.367 73.954 50.365-5.8817 1.912-88.71-77.397-85.6-83.809-0.99757-3.3856-0.46094 26.995 0.33526 19.996 2.6882-7.5666 45.71 6.5393 51.081 13.527 5.0906 1.0582-34.26 41.94-31.845 45.36 4.3511 5.8056 51.266-68.334 53.244-61.196 0.35037 3.4313-30.938 54.365-28.133 49.424 3.057-4.7999 27.342 12.82 32.739 9.4271 4.8202-0.99038 18.879-18.508 21.357-22.125-4.3692-3.3063-73.773 0.30258-80.558-1.5288 5.7253 52.454 103.26-33.788 102.5-27.18 7.5602 9.5811 12.663-44.298 18.398-38.96 7.9224 4.7855 15.721 10.006 24.27 13.581 7.2746-1.2664-0.86542-7.8164-3.213-10.624-3.887-4.4389-0.94322-22.386 3.4869-18.591 6.2062 4.515 16.171-20.986 22.251-16.228-5.8042-7.3616 29.417-16.768 25.631-25.45-0.59188-6.736-7.3355 0.04361-6.8676-5.7805-3.7224-2.3456-4.6516-1.503-9.1835-3.1253 24.924-26.43-1.9842-15.69-8.0992-9.4386-4.1694 4.5289-55.217 26.138-59.831 28.522-5.1872 3.3752-10.554 7.4739-17.121 7.0793-5.6041 0.21156-15.966 2.2816-15.533-6.386 3.3682-2.821-94.936 52.596-92.27 61.288 2.3757 5.4503 26.363 83.63 29.688 86.717z" fill="url(#al)" fill-rule="evenodd" filter="url(#c)" opacity=".90556"/>
  <path d="m713.17 724.78c36.949-12.618-18.797-3.9216 33.794-91.459 59.183-68.384-15.229-16.761 44.944-46.583 29.964 41.994-2.8478 4.2693 36.031 62.315-0.10591 34.619-25.381 52.908-25.381 52.908s-102.59 22.919-89.387 22.819z" fill="url(#ak)" fill-rule="evenodd" opacity=".73333"/>
  <path d="m198.77-61.766s1.8344-14.514 48.029-8.7941c22.995 30.543 59.701 67.498 26.957 63.156-106.72-14.151-120.93 17.244-120.93 17.244s-12.181-10.256 2.9112-34.755c19.867-32.249 43.036-36.85 43.036-36.85z" fill="url(#ai)" fill-rule="evenodd" opacity=".73333"/>
  <path transform="matrix(1.0414 .51667 -.48988 1.0984 -29.107 -116.22)" d="m174.2 10.133s8.125-25.934 65.353-34.074c34.54-4.9131 57.177-4.1426 57.177-4.1426s-62.624 2.4916-114.19 17.958c-9.1374 22.784-8.3355 20.259-8.3355 20.259z" fill="#fff" fill-rule="evenodd" filter="url(#f)" opacity=".85"/>
  <path d="m103.78 66.055s39.082-21.896 96.863-23.524c98.247-2.7675 102.4-5.535 102.4-5.535s-83.025 1.3838-134.22 1.3838c-55.036 47.048-65.036 27.675-65.036 27.675z" fill="#fff" fill-rule="evenodd" filter="url(#f)" opacity=".85"/>
  <path transform="matrix(.9112 -.41196 .41196 .9112 -25.344 363.11)" d="m403.48 591.11s75.33-76.118 148.41-98.161c94.099-28.381 84.75-20.839 84.75-20.839s-72.062 5.1456-133.52 27.841c-55.036 47.048-99.643 91.159-99.643 91.159z" fill="#fff" fill-rule="evenodd" filter="url(#f)" opacity=".85"/>
  <path d="m87.497 356.04c-16.932-34.925 72.004-71.071 166.11-92.189 95.16-26.871 98.702 0.23843 155.44-2.5291 22-15.172 164.2-7.3127 224.38-37.135-19.851 53.064-244.23 145.59-244.23 145.59s-92.104 210.15-123.8 261.28c-72.906-84.155-113.11-128.69-113.11-128.69s-45.291-106.18-64.787-146.33z" fill="url(#q)" fill-rule="evenodd" opacity=".73333"/>
  <path d="m284.86 629.93s17.989-101.47 68.377-166.92c37.573-48.805 128.98-82.272 128.98-82.272s38.451-28.961 76.588-60.012 75.962-64.191 74.709-72.548c-9.0809 1.427-62.17 54.573-110.99 86.736s-98.914 65.485-113.07 71.543c-18.142 7.7634-87.384 122.61-124.6 223.47z" fill="url(#ah)" fill-rule="evenodd" filter="url(#d)" stroke="url(#ag)" stroke-width="7.0228"/>
  <path transform="matrix(.9112 -.41196 .41196 .9112 -302.09 199.83)" d="m365.06 622.34s118.55-111.25 191.63-133.29c94.099-28.381 224.69-21.352 224.69-21.352s-215.25-14.033-289.49 30.218c-55.036 47.048-126.83 124.42-126.83 124.42z" fill="#fff" fill-rule="evenodd" filter="url(#ay)" opacity=".85"/>
  <path d="m157.75 312.36 94.095-49.815 2.7675 66.42 49.815 85.793-85.793-121.77-60.885 19.373z" fill="#f9f9f9" fill-rule="evenodd" filter="url(#s)" opacity=".52778"/>
  <path d="m141.14 179.52 77.49-19.373-22.14 41.513 19.373 55.35-49.815-44.28-24.908-33.21z" fill="#f9f9f9" fill-rule="evenodd" filter="url(#s)" opacity=".52778"/>
  <path d="m257.38 268.08c-15.5-3.69 149.45-7.38 224.17-11.07l35.978 30.443-27.675-19.373-94.095 110.7-96.863-24.908-41.513-85.793z" fill="url(#af)" fill-rule="evenodd" filter="url(#ax)" opacity=".57222"/>
 </g>
</svg>
